<?xml version="1.0" encoding="utf-8"?><svg xmlns="http://www.w3.org/2000/svg" xmlns:xlink="http://www.w3.org/1999/xlink" width="1366" height="668" preserveAspectRatio="xMidYMid" viewBox="0 0 1366 668" style="z-index:1;margin-right:-2px;display:block;background-repeat-y:initial;background-repeat-x:initial;background-color:rgb(255, 255, 255);animation-play-state:paused" ><g transform="translate(683,334) scale(1,1) translate(-683,-334)" style="transform:matrix(1, 0, 0, 1, 0, 0);animation-play-state:paused" ><defs style="animation-play-state:paused" ><linearGradient id="ldbk-photon-o31xs7jxb2-lg" x1="658" x2="1366" y1="0" y2="0" gradientUnits="userSpaceOnUse" style="animation-play-state:paused" ><stop stop-color="#1d3f72" offset="0" style="animation-play-state:paused" ></stop>

    
<stop stop-color="#06d6c6" offset="1" style="animation-play-state:paused" ></stop></linearGradient>

  
<mask id="ldbk-photon-o31xs7jxb2-mask" style="animation-play-state:paused" ><g style="animation-play-state:paused" ><path d="M1666 -0.5 L653.403185911768 -0.5 A15.5 15.5 0 0 1 653.403185911768 31.5 L1666 31.5" fill="#fff" transform="matrix(1,0,0,1,39.1436653137207,0)" style="transform:matrix(1, 0, 0, 1, 39.1437, 0);animation-play-state:paused" ></path>
<path d="M1416.4517895793895 -0.5 L1435.903579158779 -0.5 A15.5 15.5 0 0 1 1435.903579158779 31.5 L1416.4517895793895 31.5 A15.5 15.5 0 0 1 1416.4517895793895 -0.5" fill="#000" transform="matrix(1,0,0,1,0,0)" opacity="1" style="transform:matrix(1, 0, 0, 1, 0, 0);animation-play-state:paused" ></path>
<path d="M1666 30.5 L600.8668133842958 30.5 A15.5 15.5 0 0 0 600.8668133842958 62.5 L1666 62.5" fill="#fff" transform="matrix(1,0,0,1,-42.51519012451172,0)" style="transform:matrix(1, 0, 0, 1, -42.5152, 0);animation-play-state:paused" ></path>
<path d="M740.3048288339393 30.5 L753.5527915834134 30.5 A15.5 15.5 0 0 1 753.5527915834134 62.5 L740.3048288339393 62.5 A15.5 15.5 0 0 1 740.3048288339393 30.5" fill="#fff" transform="matrix(1,0,0,1,0,0)" opacity="1" style="transform:matrix(1, 0, 0, 1, 0, 0);animation-play-state:paused" ></path>
<path d="M1666 61.5 L663.4626186192951 61.5 A15.5 15.5 0 0 1 663.4626186192951 93.5 L1666 93.5" fill="#fff" transform="matrix(1,0,0,1,0.39755600690841675,0)" style="transform:matrix(1, 0, 0, 1, 0.397556, 0);animation-play-state:paused" ></path>
<path d="M1420.959672641827 61.5 L1444.919345283654 61.5 A15.5 15.5 0 0 1 1444.919345283654 93.5 L1420.959672641827 93.5 A15.5 15.5 0 0 1 1420.959672641827 61.5" fill="#000" transform="matrix(1,0,0,1,-787.3524780273438,0)" opacity="0.649351" style="transform:matrix(1, 0, 0, 1, -787.352, 0);opacity:0.649351;animation-play-state:paused" ></path>
<path d="M1666 92.5 L621.8116921881576 92.5 A15.5 15.5 0 0 0 621.8116921881576 124.5 L1666 124.5" fill="#fff" transform="matrix(1,0,0,1,-24.28336524963379,0)" style="transform:matrix(1, 0, 0, 1, -24.2834, 0);animation-play-state:paused" ></path>
<path d="M692.4213676089105 92.5 L721.7708362438773 92.5 A15.5 15.5 0 0 1 721.7708362438773 124.5 L692.4213676089105 124.5 A15.5 15.5 0 0 1 692.4213676089105 92.5" fill="#fff" transform="matrix(1,0,0,1,0,0)" opacity="1" style="transform:matrix(1, 0, 0, 1, 0, 0);animation-play-state:paused" ></path>
<path d="M1666 123.5 L664.9991204179873 123.5 A15.5 15.5 0 0 1 664.9991204179873 155.5 L1666 155.5" fill="#fff" transform="matrix(1,0,0,1,5.692343711853027,0)" style="transform:matrix(1, 0, 0, 1, 5.69234, 0);animation-play-state:paused" ></path>
<path d="M1417.4594607677864 123.5 L1437.9189215355727 123.5 A15.5 15.5 0 0 1 1437.9189215355727 155.5 L1417.4594607677864 155.5 A15.5 15.5 0 0 1 1417.4594607677864 123.5" fill="#000" transform="matrix(1,0,0,1,-657.0313110351562,0)" opacity="0.649351" style="transform:matrix(1, 0, 0, 1, -657.031, 0);opacity:0.649351;animation-play-state:paused" ></path>
<path d="M1666 154.5 L591.2332877729981 154.5 A15.5 15.5 0 0 0 591.2332877729981 186.5 L1666 186.5" fill="#fff" transform="matrix(1,0,0,1,-40.26066207885742,0)" style="transform:matrix(1, 0, 0, 1, -40.2607, 0);animation-play-state:paused" ></path>
<path d="M703.9794762417408 154.5 L723.5768059087347 154.5 A15.5 15.5 0 0 1 723.5768059087347 186.5 L703.9794762417408 186.5 A15.5 15.5 0 0 1 703.9794762417408 154.5" fill="#fff" transform="matrix(1,0,0,1,0,0)" opacity="0.454546" style="transform:matrix(1, 0, 0, 1, 0, 0);opacity:0.454546;animation-play-state:paused" ></path>
<path d="M1666 185.5 L642.2616017049435 185.5 A15.5 15.5 0 0 1 642.2616017049435 217.5 L1666 217.5" fill="#fff" transform="matrix(1,0,0,1,5.586104393005371,0)" style="transform:matrix(1, 0, 0, 1, 5.5861, 0);animation-play-state:paused" ></path>
<path d="M1412.9170599039512 185.5 L1428.8341198079024 185.5 A15.5 15.5 0 0 1 1428.8341198079024 217.5 L1412.9170599039512 217.5 A15.5 15.5 0 0 1 1412.9170599039512 185.5" fill="#000" transform="matrix(1,0,0,1,-854.5700073242188,0)" opacity="0.519481" style="transform:matrix(1, 0, 0, 1, -854.57, 0);opacity:0.519481;animation-play-state:paused" ></path>
<path d="M1666 216.5 L593.4246408135796 216.5 A15.5 15.5 0 0 0 593.4246408135796 248.5 L1666 248.5" fill="#fff" transform="matrix(1,0,0,1,-33.548728942871094,0)" style="transform:matrix(1, 0, 0, 1, -33.5487, 0);animation-play-state:paused" ></path>
<path d="M731.3875444024407 216.5 L759.5527378301136 216.5 A15.5 15.5 0 0 1 759.5527378301136 248.5 L731.3875444024407 248.5 A15.5 15.5 0 0 1 731.3875444024407 216.5" fill="#fff" transform="matrix(1,0,0,1,0,0)" opacity="0.0649351" style="transform:matrix(1, 0, 0, 1, 0, 0);opacity:0.0649351;animation-play-state:paused" ></path>
<path d="M1666 247.5 L626.8826140530132 247.5 A15.5 15.5 0 0 1 626.8826140530132 279.5 L1666 279.5" fill="#fff" transform="matrix(1,0,0,1,19.840219497680664,0)" style="transform:matrix(1, 0, 0, 1, 19.8402, 0);animation-play-state:paused" ></path>
<path d="M1407.306133439034 247.5 L1417.612266878068 247.5 A15.5 15.5 0 0 1 1417.612266878068 279.5 L1407.306133439034 279.5 A15.5 15.5 0 0 1 1407.306133439034 247.5" fill="#000" transform="matrix(1,0,0,1,-259.60723876953125,0)" opacity="1" style="transform:matrix(1, 0, 0, 1, -259.607, 0);animation-play-state:paused" ></path>
<path d="M1666 278.5 L608.3835472745604 278.5 A15.5 15.5 0 0 0 608.3835472745604 310.5 L1666 310.5" fill="#fff" transform="matrix(1,0,0,1,-0.5812187194824219,0)" style="transform:matrix(1, 0, 0, 1, -0.581219, 0);animation-play-state:paused" ></path>
<path d="M715.7344661705645 278.5 L755.2370763647541 278.5 A15.5 15.5 0 0 1 755.2370763647541 310.5 L715.7344661705645 310.5 A15.5 15.5 0 0 1 715.7344661705645 278.5" fill="#fff" transform="matrix(1,0,0,1,0,0)" opacity="0.454545" style="transform:matrix(1, 0, 0, 1, 0, 0);opacity:0.454545;animation-play-state:paused" ></path>
<path d="M1666 309.5 L671.0635873401386 309.5 A15.5 15.5 0 0 1 671.0635873401386 341.5 L1666 341.5" fill="#fff" transform="matrix(1,0,0,1,24.864852905273438,0)" style="transform:matrix(1, 0, 0, 1, 24.8649, 0);animation-play-state:paused" ></path>
<path d="M1432.1165786114082 309.5 L1467.2331572228163 309.5 A15.5 15.5 0 0 1 1467.2331572228163 341.5 L1432.1165786114082 341.5 A15.5 15.5 0 0 1 1432.1165786114082 309.5" fill="#000" transform="matrix(1,0,0,1,-531.008056640625,0)" opacity="0.909091" style="transform:matrix(1, 0, 0, 1, -531.008, 0);opacity:0.909091;animation-play-state:paused" ></path>
<path d="M1666 340.5 L650.3318205406928 340.5 A15.5 15.5 0 0 0 650.3318205406928 372.5 L1666 372.5" fill="#fff" transform="matrix(1,0,0,1,0,0)" style="transform:matrix(1, 0, 0, 1, 0, 0);animation-play-state:paused" ></path>
<path d="M715.2011118296313 340.5 L729.7627108506266 340.5 A15.5 15.5 0 0 1 729.7627108506266 372.5 L715.2011118296313 372.5 A15.5 15.5 0 0 1 715.2011118296313 340.5" fill="#fff" transform="matrix(1,0,0,1,0,0)" opacity="0.714285" style="transform:matrix(1, 0, 0, 1, 0, 0);opacity:0.714285;animation-play-state:paused" ></path>
<path d="M1666 371.5 L695.7958165449467 371.5 A15.5 15.5 0 0 1 695.7958165449467 403.5 L1666 403.5" fill="#fff" transform="matrix(1,0,0,1,4.8795976638793945,0)" style="transform:matrix(1, 0, 0, 1, 4.8796, 0);animation-play-state:paused" ></path>
<path d="M1423.1425313991535 371.5 L1449.285062798307 371.5 A15.5 15.5 0 0 1 1449.285062798307 403.5 L1423.1425313991535 403.5 A15.5 15.5 0 0 1 1423.1425313991535 371.5" fill="#000" transform="matrix(1,0,0,1,-760.7608032226562,0)" opacity="0.519481" style="transform:matrix(1, 0, 0, 1, -760.761, 0);opacity:0.519481;animation-play-state:paused" ></path>
<path d="M1666 402.5 L646.3347219870108 402.5 A15.5 15.5 0 0 0 646.3347219870108 434.5 L1666 434.5" fill="#fff" transform="matrix(1,0,0,1,-29.011913299560547,0)" style="transform:matrix(1, 0, 0, 1, -29.0119, 0);animation-play-state:paused" ></path>
<path d="M771.6682227455052 402.5 L794.5299985079469 402.5 A15.5 15.5 0 0 1 794.5299985079469 434.5 L771.6682227455052 434.5 A15.5 15.5 0 0 1 771.6682227455052 402.5" fill="#fff" transform="matrix(1,0,0,1,0,0)" opacity="0.974026" style="transform:matrix(1, 0, 0, 1, 0, 0);opacity:0.974026;animation-play-state:paused" ></path>
<path d="M1666 433.5 L699.6207649323858 433.5 A15.5 15.5 0 0 1 699.6207649323858 465.5 L1666 465.5" fill="#fff" transform="matrix(1,0,0,1,44.59147262573242,0)" style="transform:matrix(1, 0, 0, 1, 44.5915, 0);animation-play-state:paused" ></path>
<path d="M1426.5098727274412 433.5 L1456.0197454548825 433.5 A15.5 15.5 0 0 1 1456.0197454548825 465.5 L1426.5098727274412 465.5 A15.5 15.5 0 0 1 1426.5098727274412 433.5" fill="#000" transform="matrix(1,0,0,1,-898.044921875,0)" opacity="0.25974" style="transform:matrix(1, 0, 0, 1, -898.045, 0);opacity:0.25974;animation-play-state:paused" ></path>
<path d="M1666 464.5 L648.5382112713307 464.5 A15.5 15.5 0 0 0 648.5382112713307 496.5 L1666 496.5" fill="#fff" transform="matrix(1,0,0,1,-45.001243591308594,0)" style="transform:matrix(1, 0, 0, 1, -45.0012, 0);animation-play-state:paused" ></path>
<path d="M789.7861410485029 464.5 L809.2886690875363 464.5 A15.5 15.5 0 0 1 809.2886690875363 496.5 L789.7861410485029 496.5 A15.5 15.5 0 0 1 789.7861410485029 464.5" fill="#fff" transform="matrix(1,0,0,1,0,0)" opacity="1" style="transform:matrix(1, 0, 0, 1, 0, 0);animation-play-state:paused" ></path>
<path d="M1666 495.5 L704.3970368621709 495.5 A15.5 15.5 0 0 1 704.3970368621709 527.5 L1666 527.5" fill="#fff" transform="matrix(1,0,0,1,5.453311920166016,0)" style="transform:matrix(1, 0, 0, 1, 5.45331, 0);animation-play-state:paused" ></path>
<path d="M1428.9350468652515 495.5 L1460.870093730503 495.5 A15.5 15.5 0 0 1 1460.870093730503 527.5 L1428.9350468652515 527.5 A15.5 15.5 0 0 1 1428.9350468652515 495.5" fill="#000" transform="matrix(1,0,0,1,-304.97674560546875,0)" opacity="1" style="transform:matrix(1, 0, 0, 1, -304.977, 0);animation-play-state:paused" ></path>
<path d="M1666 526.5 L657.1485311794247 526.5 A15.5 15.5 0 0 0 657.1485311794247 558.5 L1666 558.5" fill="#fff" transform="matrix(1,0,0,1,-48.64068603515625,0)" style="transform:matrix(1, 0, 0, 1, -48.6407, 0);animation-play-state:paused" ></path>
<path d="M753.5612795057073 526.5 L780.302276476967 526.5 A15.5 15.5 0 0 1 780.302276476967 558.5 L753.5612795057073 558.5 A15.5 15.5 0 0 1 753.5612795057073 526.5" fill="#fff" transform="matrix(1,0,0,1,0,0)" opacity="0.519481" style="transform:matrix(1, 0, 0, 1, 0, 0);opacity:0.519481;animation-play-state:paused" ></path>
<path d="M1666 557.5 L682.9770985685584 557.5 A15.5 15.5 0 0 1 682.9770985685584 589.5 L1666 589.5" fill="#fff" transform="matrix(1,0,0,1,38.542991638183594,0)" style="transform:matrix(1, 0, 0, 1, 38.543, 0);animation-play-state:paused" ></path>
<path d="M1434.7694722230676 557.5 L1472.5389444461352 557.5 A15.5 15.5 0 0 1 1472.5389444461352 589.5 L1434.7694722230676 589.5 A15.5 15.5 0 0 1 1434.7694722230676 557.5" fill="#000" transform="matrix(1,0,0,1,-728.7320556640625,0)" opacity="0.779221" style="transform:matrix(1, 0, 0, 1, -728.732, 0);opacity:0.779221;animation-play-state:paused" ></path>
<path d="M1666 588.5 L666.56396289456 588.5 A15.5 15.5 0 0 0 666.56396289456 620.5 L1666 620.5" fill="#fff" transform="matrix(1,0,0,1,-28.961240768432617,0)" style="transform:matrix(1, 0, 0, 1, -28.9612, 0);animation-play-state:paused" ></path>
<path d="M771.6449153475706 588.5 L784.6365162986998 588.5 A15.5 15.5 0 0 1 784.6365162986998 620.5 L771.6449153475706 620.5 A15.5 15.5 0 0 1 771.6449153475706 588.5" fill="#fff" transform="matrix(1,0,0,1,0,0)" opacity="0.584416" style="transform:matrix(1, 0, 0, 1, 0, 0);opacity:0.584416;animation-play-state:paused" ></path>
<path d="M1666 619.5 L704.7161109975642 619.5 A15.5 15.5 0 0 1 704.7161109975642 651.5 L1666 651.5" fill="#fff" transform="matrix(1,0,0,1,19.553707122802734,0)" style="transform:matrix(1, 0, 0, 1, 19.5537, 0);animation-play-state:paused" ></path>
<path d="M1413.0488679449993 619.5 L1429.0977358899986 619.5 A15.5 15.5 0 0 1 1429.0977358899986 651.5 L1413.0488679449993 651.5 A15.5 15.5 0 0 1 1413.0488679449993 619.5" fill="#000" transform="matrix(1,0,0,1,-302.9867858886719,0)" opacity="1" style="transform:matrix(1, 0, 0, 1, -302.987, 0);animation-play-state:paused" ></path>
<path d="M1666 650.5 L628.7699688834836 650.5 A15.5 15.5 0 0 0 628.7699688834836 682.5 L1666 682.5" fill="#fff" transform="matrix(1,0,0,1,-17.494369506835938,0)" style="transform:matrix(1, 0, 0, 1, -17.4944, 0);animation-play-state:paused" ></path>
<path d="M736.0534814624342 650.5 L771.0474282095867 650.5 A15.5 15.5 0 0 1 771.0474282095867 682.5 L736.0534814624342 682.5 A15.5 15.5 0 0 1 736.0534814624342 650.5" fill="#fff" transform="matrix(1,0,0,1,0,0)" opacity="0.584415" style="transform:matrix(1, 0, 0, 1, 0, 0);opacity:0.584415;animation-play-state:paused" ></path></g></mask></defs>


<rect x="0" y="0" width="1366" height="668" fill="url(#ldbk-photon-o31xs7jxb2-lg)" mask="url(#ldbk-photon-o31xs7jxb2-mask)" style="animation-play-state:paused" ></rect></g></svg>